REM DIRINDEX 1\2\6,1\2\7,1\2\8,1\2\9,1\3\10,1\3\11,1\4\12,1\4\13,1\4\14,1\5\15,1\5\16,1\5\17
REM DIRNAME cjc020,folder01,folder02,folder03,folder04,folder05,folder06,folder07,folder08,folder09,folder10,folder11,folder12,folder13,folder14,folder15,folder16
TITLE ""
FILE "1900_3_031 sec06_0501_0515.mp3" MP3
  TRACK 01 AUDIO
    TITLE "0:"
    INDEX 01 00:00:00
  TRACK 02 AUDIO
    TITLE "15:cjc020_6972"
    INDEX 01 00:00:15
  TRACK 03 AUDIO
    TITLE "0:"
    INDEX 01 00:01:69
  TRACK 04 AUDIO
    TITLE "17:cjc020_6973"
    INDEX 01 00:02:73
  TRACK 05 AUDIO
    TITLE "0:"
    INDEX 01 00:04:29
  TRACK 06 AUDIO
    TITLE "16:cjc020_6974"
    INDEX 01 00:04:36
  TRACK 07 AUDIO
    TITLE "0:"
    INDEX 01 00:05:59
  TRACK 08 AUDIO
    TITLE "17:cjc020_6975"
    INDEX 01 00:06:53
  TRACK 09 AUDIO
    TITLE "0:"
    INDEX 01 00:07:70
  TRACK 10 AUDIO
    TITLE "16:cjc020_6976"
    INDEX 01 00:08:01
  TRACK 11 AUDIO
    TITLE "0:"
    INDEX 01 00:09:36
  TRACK 12 AUDIO
    TITLE "17:cjc020_6977"
    INDEX 01 00:10:23
  TRACK 13 AUDIO
    TITLE "0:"
    INDEX 01 00:11:46
  TRACK 14 AUDIO
    TITLE "16:cjc020_6978"
    INDEX 01 00:11:52
  TRACK 15 AUDIO
    TITLE "0:"
    INDEX 01 00:12:61
  TRACK 16 AUDIO
    TITLE "17:cjc020_6979"
    INDEX 01 00:13:45
  TRACK 17 AUDIO
    TITLE "0:"
    INDEX 01 00:15:09
  TRACK 18 AUDIO
    TITLE "16:cjc020_6980"
    INDEX 01 00:15:13
  TRACK 19 AUDIO
    TITLE "0:"
    INDEX 01 00:16:30
  TRACK 20 AUDIO
    TITLE "17:cjc020_6981"
    INDEX 01 00:17:08
  TRACK 21 AUDIO
    TITLE "0:"
    INDEX 01 00:18:05
  TRACK 22 AUDIO
    TITLE "16:cjc020_6982"
    INDEX 01 00:18:09
  TRACK 23 AUDIO
    TITLE "0:"
    INDEX 01 00:19:11
  TRACK 24 AUDIO
    TITLE "17:cjc020_6983"
    INDEX 01 00:19:73
  TRACK 25 AUDIO
    TITLE "0:"
    INDEX 01 00:21:17
  TRACK 26 AUDIO
    TITLE "16:cjc020_6984"
    INDEX 01 00:21:23
  TRACK 27 AUDIO
    TITLE "0:"
    INDEX 01 00:22:40
  TRACK 28 AUDIO
    TITLE "17:cjc020_6985"
    INDEX 01 00:23:22
  TRACK 29 AUDIO
    TITLE "0:"
    INDEX 01 00:24:51
  TRACK 30 AUDIO
    TITLE "16:cjc020_6986"
    INDEX 01 00:24:53
  TRACK 31 AUDIO
    TITLE "0:"
    INDEX 01 00:25:60
  TRACK 32 AUDIO
    TITLE "17:cjc020_6987"
    INDEX 01 00:26:48
  TRACK 33 AUDIO
    TITLE "0:"
    INDEX 01 00:27:53
  TRACK 34 AUDIO
    TITLE "16:cjc020_6988"
    INDEX 01 00:27:57
  TRACK 35 AUDIO
    TITLE "0:"
    INDEX 01 00:29:01
  TRACK 36 AUDIO
    TITLE "17:cjc020_6989"
    INDEX 01 00:29:60
  TRACK 37 AUDIO
    TITLE "0:"
    INDEX 01 00:30:65
  TRACK 38 AUDIO
    TITLE "16:cjc020_6990"
    INDEX 01 00:30:67
  TRACK 39 AUDIO
    TITLE "0:"
    INDEX 01 00:32:19
  TRACK 40 AUDIO
    TITLE "17:cjc020_6991"
    INDEX 01 00:33:01
  TRACK 41 AUDIO
    TITLE "0:"
    INDEX 01 00:33:71
  TRACK 42 AUDIO
    TITLE "16:cjc020_6992"
    INDEX 01 00:34:02
  TRACK 43 AUDIO
    TITLE "0:"
    INDEX 01 00:35:23
  TRACK 44 AUDIO
    TITLE "17:cjc020_6993"
    INDEX 01 00:36:05
  TRACK 45 AUDIO
    TITLE "0:"
    INDEX 01 00:37:18
  TRACK 46 AUDIO
    TITLE "16:cjc020_6994"
    INDEX 01 00:37:24
  TRACK 47 AUDIO
    TITLE "0:"
    INDEX 01 00:38:26
  TRACK 48 AUDIO
    TITLE "17:cjc020_6995"
    INDEX 01 00:39:13
  TRACK 49 AUDIO
    TITLE "0:"
    INDEX 01 00:40:34
  TRACK 50 AUDIO
    TITLE "16:cjc020_6996"
    INDEX 01 00:40:36
  TRACK 51 AUDIO
    TITLE "0:"
    INDEX 01 00:41:47
  TRACK 52 AUDIO
    TITLE "17:cjc020_6997"
    INDEX 01 00:42:31
  TRACK 53 AUDIO
    TITLE "0:"
    INDEX 01 00:43:58
  TRACK 54 AUDIO
    TITLE "16:cjc020_6998"
    INDEX 01 00:43:62
  TRACK 55 AUDIO
    TITLE "0:"
    INDEX 01 00:44:58
  TRACK 56 AUDIO
    TITLE "17:cjc020_6999"
    INDEX 01 00:45:45
  TRACK 57 AUDIO
    TITLE "0:"
    INDEX 01 00:46:74
  TRACK 58 AUDIO
    TITLE "16:cjc020_7000"
    INDEX 01 00:47:09
  TRACK 59 AUDIO
    TITLE "0:"
    INDEX 01 00:48:10
  TRACK 60 AUDIO
    TITLE "17:cjc020_7001"
    INDEX 01 00:48:67
  TRACK 61 AUDIO
    TITLE "0:"
    INDEX 01 00:49:59
  TRACK 62 AUDIO
    TITLE "16:cjc020_7002"
    INDEX 01 00:49:65
  TRACK 63 AUDIO
    TITLE "0:"
    INDEX 01 00:51:05
